<svg t="1594350041424" class="icon" viewBox="0 0 1024 1024" version="1.1" xmlns="http://www.w3.org/2000/svg" p-id="738" width="24" height="24"><path d="M111.50222222 220.72888889H38.68444445q-15.94709333 0-26.17799112-10.23089778T2.27555555 184.32t10.23089778-26.17799111T38.68444445 147.91111111h291.2711111V38.68444445q0-15.94709333 10.23089778-26.17799112T366.36444445 2.27555555h291.2711111q15.94709333 0 26.17799112 10.23089778T694.04444445 38.68444445v109.22666666h291.2711111q15.94709333 0 26.17799112 10.23089778T1021.72444445 184.32t-10.23089778 26.17799111T985.31555555 220.72888889h-72.81777777v764.58666666q0 15.94709333-10.23089778 26.17799112T876.08888889 1021.72444445H147.91111111q-15.94709333 0-26.17799111-10.23089778T111.50222222 985.31555555V220.72888889z m509.72444445-72.81777778V75.09333333h-218.45333334v72.81777778h218.45333334zM184.32 948.90666667h655.36V220.72888889H184.32v728.17777778z m218.45333333-145.63555556q-15.94709333 0-26.17799111-10.23089778T366.36444445 766.86222222V402.77333333q0-15.94709333 10.23089777-26.17799111T402.77333333 366.36444445t26.17799112 10.23089777T439.18222222 402.77333333v364.08888889q0 15.94709333-10.23089777 26.17799111T402.77333333 803.27111111z m218.45333334 0q-15.94709333 0-26.17799112-10.23089778T584.81777778 766.86222222V402.77333333q0-15.94709333 10.23089777-26.17799111T621.22666667 366.36444445t26.17799111 10.23089777T657.63555555 402.77333333v364.08888889q0 15.94709333-10.23089777 26.17799111T621.22666667 803.27111111z" p-id="739"></path></svg>