<svg t="1594350141500" class="icon" viewBox="0 0 1024 1024" version="1.1" xmlns="http://www.w3.org/2000/svg" p-id="5836" width="24" height="24"><path d="M924 960H100c-19.9 0-36-16.1-36-36V100c0-19.9 16.1-36 36-36h411.3c20.2 0 37.1 16.5 36.7 36.7-0.4 19.6-16.3 35.3-36 35.3H136v752h752V512.2c0-20.2 16.5-37.1 36.7-36.7 19.6 0.4 35.3 16.3 35.3 36V924c0 19.9-16.1 36-36 36z" p-id="5837"></path><path d="M512 548c-9.2 0-18.4-3.5-25.5-10.5-14.1-14.1-14.1-36.9 0-50.9L899 74.1c14.1-14.1 36.9-14.1 50.9 0 14.1 14.1 14.1 36.9 0 50.9L537.5 537.5c-7.1 7-16.3 10.5-25.5 10.5z" p-id="5838"></path></svg>