<svg t="1594350277668" class="icon" viewBox="0 0 1024 1024" version="1.1" xmlns="http://www.w3.org/2000/svg" p-id="799" width="24" height="24"><path d="M512.11377778 75.09333333c59.05066667 0 116.28088889 11.49155555 170.09777777 34.36088889 51.99644445 21.95911111 98.75911111 53.47555555 138.92266667 93.63911111s71.68 86.92622222 93.63911111 138.92266667c22.75555555 53.81688889 34.36088889 111.04711111 34.36088889 170.09777778S937.64266667 628.39466667 914.77333333 682.21155555c-21.95911111 51.99644445-53.47555555 98.75911111-93.63911111 138.92266667s-86.92622222 71.68-138.92266667 93.63911111c-53.81688889 22.75555555-111.04711111 34.36088889-170.09777777 34.36088889S395.83288889 937.64266667 342.016 914.77333333c-51.99644445-21.95911111-98.75911111-53.47555555-138.92266667-93.63911111s-71.68-86.92622222-93.63911111-138.92266667c-22.75555555-53.81688889-34.36088889-111.04711111-34.36088889-170.09777777s11.49155555-116.28088889 34.36088889-170.09777778c21.95911111-51.99644445 53.47555555-98.75911111 93.63911111-138.92266667s86.92622222-71.68 138.92266667-93.63911111c53.81688889-22.75555555 111.04711111-34.36088889 170.09777778-34.36088889m0-72.81777778C230.51377778 2.27555555 2.27555555 230.51377778 2.27555555 512.11377778s228.23822222 509.83822222 509.83822223 509.83822222 509.83822222-228.23822222 509.83822222-509.83822222S793.71377778 2.27555555 512.11377778 2.27555555z" p-id="800"></path><path d="M547.49866667 256.68266667V621.22666667c0 20.02488889-16.27022222 36.29511111-36.29511112 36.29511111-20.02488889 0-36.29511111-16.27022222-36.2951111-36.29511111V256.68266667c0-20.02488889 16.27022222-36.29511111 36.2951111-36.29511112 20.02488889 0 36.29511111 16.27022222 36.29511112 36.29511112zM511.20355555 730.33955555c20.02488889 0 36.29511111 16.27022222 36.29511112 36.29511112 0 20.02488889-16.27022222 36.29511111-36.29511112 36.29511111-20.02488889 0-36.29511111-16.27022222-36.2951111-36.29511111 0-20.02488889 16.27022222-36.29511111 36.2951111-36.29511112z" p-id="801"></path></svg>